<svg width="213" height="34" viewBox="0 0 213 34" fill="none" xmlns="http://www.w3.org/2000/svg">
<path d="M0.641907 32.7684L6.06454 0.10498H18.5685C20.9289 0.10498 22.8322 0.477122 24.2782 1.2214C25.7242 1.95506 26.729 2.95984 27.2926 4.23575C27.8667 5.51166 28.0156 6.9577 27.7391 8.57386C27.5158 9.8923 27.0693 11.0247 26.3994 11.971C25.7402 12.9066 24.9321 13.6722 23.9752 14.2676C23.0182 14.8524 21.9922 15.2724 20.897 15.5276L20.8332 15.8466C21.9816 15.8997 23.0342 16.2506 23.9911 16.8992C24.9481 17.5478 25.6711 18.4622 26.1602 19.6424C26.6493 20.812 26.7609 22.2208 26.4951 23.8689C26.208 25.5595 25.5435 27.0799 24.5015 28.4303C23.4595 29.77 22.0454 30.8279 20.2591 31.6041C18.4834 32.3803 16.3516 32.7684 13.8636 32.7684H0.641907ZM7.3883 27.8242H13.7519C15.8891 27.8242 17.5052 27.4148 18.6004 26.5961C19.6955 25.7668 20.3495 24.7035 20.5621 23.4064C20.7216 22.4388 20.6259 21.5669 20.275 20.7907C19.9242 20.0039 19.3447 19.3872 18.5366 18.9407C17.7285 18.4835 16.7184 18.2549 15.5063 18.2549H8.96724L7.3883 27.8242ZM9.70089 13.9965H15.5541C16.5749 13.9965 17.5212 13.8104 18.3931 13.4383C19.2756 13.0555 20.0092 12.5186 20.594 11.8274C21.1894 11.1257 21.5563 10.2963 21.6945 9.33941C21.9178 8.07412 21.6519 7.03213 20.897 6.21342C20.1421 5.3947 18.8981 4.98535 17.165 4.98535H11.1682L9.70089 13.9965Z" fill="#88889B"/>
<path d="M42.4477 0.10498L37.0251 32.7684H31.2516L36.6742 0.10498H42.4477Z" fill="#88889B"/>
<path d="M55.059 33.2468C52.6454 33.2468 50.6358 32.7152 49.0303 31.6519C47.4354 30.5887 46.3137 29.0948 45.6651 27.1703C45.0165 25.2458 44.8995 23.0129 45.3142 20.4718C45.7289 17.9625 46.5582 15.7668 47.8022 13.8848C49.0569 12.0029 50.6358 10.5462 52.5391 9.51484C54.4529 8.47285 56.5954 7.95185 58.9665 7.95185C61.3801 7.95185 63.3843 8.4888 64.9792 9.56269C66.5741 10.626 67.6958 12.1198 68.3444 14.0443C69.0036 15.9688 69.1259 18.2123 68.7113 20.7748C68.3072 23.2734 67.4726 25.4584 66.2073 27.3298C64.9526 29.2011 63.3737 30.6578 61.4704 31.6998C59.5672 32.7312 57.4301 33.2468 55.059 33.2468ZM55.5374 28.6216C56.8772 28.6216 58.0521 28.2601 59.0622 27.5371C60.0829 26.8035 60.9175 25.82 61.5661 24.5866C62.2254 23.3426 62.6826 21.9603 62.9377 20.4399C63.1717 18.9726 63.177 17.6435 62.9537 16.4526C62.7304 15.2511 62.2519 14.2995 61.5183 13.5978C60.7953 12.8854 59.7905 12.5292 58.5039 12.5292C57.1642 12.5292 55.9787 12.9013 54.9473 13.6456C53.9266 14.3793 53.0919 15.3681 52.4434 16.6121C51.7948 17.8455 51.3482 19.2224 51.1036 20.7429C50.8591 22.2102 50.8485 23.5393 51.0718 24.7301C51.295 25.921 51.7735 26.8673 52.5072 27.569C53.2408 28.2708 54.2509 28.6216 55.5374 28.6216Z" fill="#88889B"/>
<path d="M83.6032 33.2468C81.1577 33.2468 79.1482 32.7099 77.5745 31.636C76.0009 30.5621 74.9005 29.0788 74.2731 27.1862C73.6564 25.283 73.5554 23.0927 73.9701 20.6153C74.3741 18.1273 75.2088 15.9316 76.4741 14.0284C77.75 12.1145 79.3555 10.626 81.2906 9.56269C83.2258 8.4888 85.3895 7.95185 87.7819 7.95185C89.7702 7.95185 91.4661 8.31868 92.8696 9.05232C94.2837 9.77534 95.3363 10.8014 96.0275 12.1305C96.7292 13.4489 97.0003 14.9906 96.8408 16.7557H91.3066C91.2853 15.5754 90.9185 14.5919 90.2061 13.8051C89.4937 13.0077 88.4517 12.6089 87.0801 12.6089C85.8892 12.6089 84.7941 12.9279 83.7946 13.5659C82.7952 14.1932 81.9499 15.097 81.2588 16.2772C80.5676 17.4574 80.0892 18.8715 79.8233 20.5196C79.5469 22.1889 79.5522 23.6243 79.8393 24.8258C80.137 26.0167 80.674 26.9364 81.4501 27.585C82.2369 28.2229 83.2311 28.5419 84.4326 28.5419C85.2832 28.5419 86.0753 28.3824 86.809 28.0634C87.5426 27.7338 88.1859 27.2607 88.7388 26.644C89.3023 26.0273 89.7436 25.2777 90.0626 24.3952H95.5809C95.1449 26.1283 94.3688 27.6647 93.2523 29.0044C92.1465 30.3335 90.7749 31.3755 89.1375 32.1304C87.5001 32.8747 85.6553 33.2468 83.6032 33.2468Z" fill="#88889B"/>
<path d="M106.773 25.081L107.905 18.1113H108.83L119.309 8.27083H126.055L113.232 20.3282H112.052L106.773 25.081ZM100.25 32.7684L105.672 0.10498H111.446L106.023 32.7684H100.25ZM115.624 32.7684L109.5 21.6201L114.077 17.5531L122.53 32.7684H115.624Z" fill="#88889B"/>
<path d="M143.483 8.27083L142.733 12.7365H128.666L129.4 8.27083H143.483ZM133.834 2.40163H139.607L135.779 25.4C135.663 26.1761 135.684 26.7716 135.843 27.1862C136.013 27.5903 136.285 27.8667 136.657 28.0156C137.039 28.1644 137.47 28.2389 137.949 28.2389C138.299 28.2389 138.629 28.2123 138.937 28.1591C139.246 28.0953 139.49 28.0475 139.671 28.0156L139.926 32.5291C139.575 32.6355 139.102 32.7524 138.507 32.88C137.922 33.0076 137.22 33.082 136.402 33.1033C134.934 33.1352 133.658 32.9119 132.574 32.4334C131.5 31.9443 130.713 31.1947 130.213 30.1846C129.724 29.1639 129.613 27.888 129.878 26.3569L133.834 2.40163Z" fill="#88889B"/>
<path d="M162.896 22.4654L165.273 8.27083H171.046L166.963 32.7684H161.365L162.099 28.4143H161.844C161.078 29.7859 159.983 30.9077 158.558 31.7795C157.144 32.6514 155.517 33.0873 153.678 33.0873C152.072 33.0873 150.717 32.7312 149.611 32.0188C148.505 31.2957 147.718 30.2484 147.25 28.8768C146.793 27.4946 146.724 25.8253 147.043 23.8689L149.659 8.27083H155.432L152.976 22.9757C152.732 24.5281 152.955 25.7615 153.646 26.6759C154.348 27.5903 155.39 28.0475 156.772 28.0475C157.623 28.0475 158.478 27.8402 159.34 27.4255C160.212 27.0108 160.972 26.3941 161.62 25.5754C162.269 24.7461 162.694 23.7094 162.896 22.4654Z" fill="#88889B"/>
<path d="M181.233 33.2628C179.681 33.2628 178.331 32.9863 177.182 32.4334C176.034 31.8699 175.189 31.0406 174.646 29.9454C174.115 28.8502 173.982 27.4999 174.248 25.8944C174.482 24.5121 174.928 23.3691 175.587 22.4654C176.257 21.5616 177.076 20.8386 178.043 20.2963C179.022 19.7434 180.085 19.3287 181.233 19.0523C182.392 18.7758 183.572 18.5738 184.774 18.4462C186.241 18.2974 187.427 18.1592 188.331 18.0316C189.245 17.904 189.931 17.7126 190.388 17.4574C190.845 17.1916 191.122 16.7875 191.217 16.2453V16.1496C191.409 14.9481 191.217 14.0178 190.643 13.3585C190.069 12.6993 189.112 12.3697 187.772 12.3697C186.369 12.3697 185.189 12.678 184.232 13.2947C183.275 13.9114 182.578 14.6398 182.142 15.4797L176.911 14.7142C177.57 13.2256 178.474 11.9816 179.622 10.9821C180.771 9.97204 182.095 9.21713 183.594 8.7174C185.104 8.20703 186.714 7.95185 188.426 7.95185C189.596 7.95185 190.739 8.09007 191.855 8.36652C192.982 8.64297 193.976 9.10017 194.838 9.73813C195.71 10.3655 196.348 11.2214 196.752 12.3059C197.166 13.3904 197.235 14.7461 196.959 16.3729L194.232 32.7684H188.681L189.256 29.4031H189.064C188.607 30.0836 188.012 30.7216 187.278 31.317C186.544 31.9018 185.672 32.375 184.662 32.7365C183.652 33.0873 182.509 33.2628 181.233 33.2628ZM183.418 29.0204C184.577 29.0204 185.619 28.7918 186.544 28.3346C187.469 27.8667 188.23 27.25 188.825 26.4845C189.42 25.7189 189.793 24.8843 189.941 23.9805L190.42 21.0938C190.207 21.2426 189.878 21.3808 189.431 21.5084C188.984 21.636 188.485 21.7477 187.932 21.8434C187.39 21.9391 186.853 22.0241 186.321 22.0985C185.789 22.173 185.332 22.2368 184.949 22.2899C184.067 22.4069 183.259 22.5983 182.525 22.8641C181.802 23.1299 181.201 23.502 180.723 23.9805C180.255 24.4483 179.963 25.0544 179.846 25.7987C179.676 26.8513 179.925 27.6541 180.595 28.207C181.265 28.7492 182.206 29.0204 183.418 29.0204Z" fill="#88889B"/>
<path d="M212.581 0.10498L207.158 32.7684H201.384L206.807 0.10498H212.581Z" fill="#88889B"/>
</svg>
