<svg width="195" height="46" viewBox="0 0 195 46" fill="none" xmlns="http://www.w3.org/2000/svg">
<path d="M22.3575 1.4821V23.1747C22.3575 26.4982 21.4443 29.0582 19.6179 30.8547C17.8214 32.6511 15.3213 33.5494 12.1175 33.5494C8.64434 33.5494 5.88973 32.5763 3.85371 30.6301C1.81769 28.654 0.799683 25.8245 0.799683 22.1417H8.38984C8.38984 25.1059 9.51264 26.588 11.7582 26.588C13.7044 26.588 14.6775 25.4502 14.6775 23.1747V1.4821H22.3575Z" fill="#88889B"/>
<path d="M38.2936 7.85963C40.2099 7.85963 41.8566 8.29378 43.234 9.16208C44.6113 10.0304 45.6293 11.2131 46.288 12.7101V8.17401H53.923V33.235H46.288V28.6989C45.6293 30.1959 44.6113 31.3786 43.234 32.2469C41.8566 33.1152 40.2099 33.5494 38.2936 33.5494C36.2277 33.5494 34.3713 33.0404 32.7245 32.0224C31.1077 30.9744 29.8202 29.4773 28.8621 27.5312C27.9339 25.585 27.4698 23.3094 27.4698 20.7045C27.4698 18.0697 27.9339 15.7941 28.8621 13.8779C29.8202 11.9317 31.1077 10.4496 32.7245 9.43155C34.3713 8.3836 36.2277 7.85963 38.2936 7.85963ZM40.7638 14.5964C39.117 14.5964 37.7846 15.1354 36.7666 16.2133C35.7785 17.2912 35.2845 18.7883 35.2845 20.7045C35.2845 22.6208 35.7785 24.1178 36.7666 25.1957C37.7846 26.2736 39.117 26.8126 40.7638 26.8126C42.3806 26.8126 43.698 26.2586 44.7161 25.1508C45.764 24.043 46.288 22.5609 46.288 20.7045C46.288 18.8182 45.764 17.3361 44.7161 16.2582C43.698 15.1504 42.3806 14.5964 40.7638 14.5964Z" fill="#88889B"/>
<path d="M71.876 7.85963C75.1096 7.85963 77.8194 8.75787 80.0051 10.5544C82.1908 12.3209 83.5681 14.7611 84.137 17.875H76.0079C75.7684 16.7971 75.2743 15.9588 74.5258 15.36C73.7773 14.7611 72.8341 14.4617 71.6963 14.4617C70.349 14.4617 69.2411 15.0007 68.3728 16.0786C67.5045 17.1265 67.0704 18.6685 67.0704 20.7045C67.0704 22.7405 67.5045 24.2975 68.3728 25.3754C69.2411 26.4233 70.349 26.9473 71.6963 26.9473C72.8341 26.9473 73.7773 26.6479 74.5258 26.049C75.2743 25.4502 75.7684 24.6119 76.0079 23.534H84.137C83.5681 26.6479 82.1908 29.1031 80.0051 30.8996C77.8194 32.6661 75.1096 33.5494 71.876 33.5494C69.4208 33.5494 67.2351 33.0404 65.3188 32.0224C63.4325 30.9744 61.9504 29.4773 60.8725 27.5312C59.7946 25.585 59.2557 23.3094 59.2557 20.7045C59.2557 18.0697 59.7796 15.7941 60.8276 13.8779C61.9055 11.9317 63.4025 10.4496 65.3188 9.43155C67.2351 8.3836 69.4208 7.85963 71.876 7.85963Z" fill="#88889B"/>
<path d="M104.673 33.235L97.1731 22.5908V33.235H89.4931V0H97.1731V18.2343L104.673 8.17401H113.701L103.596 20.7045L113.925 33.235H104.673Z" fill="#88889B"/>
<path d="M133.707 7.85963C135.773 7.85963 137.614 8.3836 139.231 9.43155C140.878 10.4496 142.165 11.9317 143.093 13.8779C144.051 15.7941 144.531 18.0697 144.531 20.7045C144.531 23.3094 144.051 25.585 143.093 27.5312C142.165 29.4773 140.878 30.9744 139.231 32.0224C137.614 33.0404 135.773 33.5494 133.707 33.5494C131.79 33.5494 130.144 33.1152 128.766 32.2469C127.389 31.3786 126.386 30.1959 125.757 28.6989V45.1816H118.077V8.17401H125.757V12.7101C126.386 11.2131 127.389 10.0304 128.766 9.16208C130.144 8.29378 131.79 7.85963 133.707 7.85963ZM131.237 14.5964C129.62 14.5964 128.287 15.1504 127.239 16.2582C126.221 17.3361 125.712 18.8182 125.712 20.7045C125.712 22.5609 126.221 24.043 127.239 25.1508C128.287 26.2586 129.62 26.8126 131.237 26.8126C132.883 26.8126 134.201 26.2736 135.189 25.1957C136.207 24.1178 136.716 22.6208 136.716 20.7045C136.716 18.7883 136.207 17.2912 135.189 16.2133C134.201 15.1354 132.883 14.5964 131.237 14.5964Z" fill="#88889B"/>
<path d="M161.585 7.85963C164.07 7.85963 166.286 8.3836 168.232 9.43155C170.208 10.4496 171.75 11.9317 172.858 13.8779C173.996 15.824 174.565 18.0996 174.565 20.7045C174.565 23.3094 173.996 25.585 172.858 27.5312C171.75 29.4773 170.208 30.9744 168.232 32.0224C166.286 33.0404 164.07 33.5494 161.585 33.5494C159.1 33.5494 156.869 33.0404 154.893 32.0224C152.917 30.9744 151.36 29.4773 150.222 27.5312C149.115 25.585 148.561 23.3094 148.561 20.7045C148.561 18.0996 149.115 15.824 150.222 13.8779C151.36 11.9317 152.917 10.4496 154.893 9.43155C156.869 8.3836 159.1 7.85963 161.585 7.85963ZM161.585 14.5066C160.118 14.5066 158.876 15.0456 157.857 16.1235C156.869 17.1714 156.375 18.6984 156.375 20.7045C156.375 22.7106 156.869 24.2376 157.857 25.2855C158.876 26.3335 160.118 26.8575 161.585 26.8575C163.052 26.8575 164.28 26.3335 165.268 25.2855C166.256 24.2376 166.75 22.7106 166.75 20.7045C166.75 18.6984 166.256 17.1714 165.268 16.1235C164.28 15.0456 163.052 14.5066 161.585 14.5066Z" fill="#88889B"/>
<path d="M194.087 26.6329V33.235H190.629C187.694 33.235 185.404 32.5164 183.757 31.0792C182.14 29.6121 181.332 27.2018 181.332 23.8484V14.6414H177.963V8.17401H181.332V2.02104H189.012V8.17401H194.042V14.6414H189.012V23.9831C189.012 24.9712 189.206 25.6598 189.596 26.049C190.015 26.4383 190.703 26.6329 191.662 26.6329H194.087Z" fill="#88889B"/>
</svg>
