<svg width="195" height="36" viewBox="0 0 195 36" fill="none" xmlns="http://www.w3.org/2000/svg">
<path d="M14.089 35.2732L7.53197 12.1812H7.3346C7.64161 16.1139 7.79512 19.1695 7.79512 21.3478V35.2732H0.119705V3.2119H11.6548L18.3433 25.975H18.5188L25.0758 3.2119H36.6328V35.2732H28.6723V21.2162C28.6723 20.4852 28.6796 19.6738 28.6942 18.782C28.7234 17.8902 28.8258 15.7046 29.0012 12.225H28.8038L22.3346 35.2732H14.089Z" fill="#88889B"/>
<path d="M51.6547 35.2732H43.0801V10.4268H51.6547V35.2732ZM42.8608 4.2426C42.8608 2.95605 43.219 1.99845 43.9354 1.3698C44.6517 0.741145 45.8067 0.426819 47.4003 0.426819C48.9938 0.426819 50.1561 0.748455 50.8871 1.39173C51.6181 2.035 51.9836 2.98529 51.9836 4.2426C51.9836 6.75721 50.4558 8.01452 47.4003 8.01452C44.374 8.01452 42.8608 6.75721 42.8608 4.2426Z" fill="#88889B"/>
<path d="M73.3213 35.2732V21.7206C73.3213 20.0686 73.08 18.8259 72.5976 17.9926C72.1297 17.1446 71.3695 16.7206 70.3169 16.7206C68.8695 16.7206 67.8242 17.2981 67.1809 18.4531C66.5377 19.6081 66.216 21.589 66.216 24.396V35.2732H57.6415V10.4268H64.1108L65.1853 13.497H65.6897C66.4207 12.3274 67.4295 11.4502 68.716 10.8654C70.0172 10.2806 71.5084 9.9882 73.1897 9.9882C75.9382 9.9882 78.0727 10.785 79.5932 12.3785C81.1283 13.9721 81.8958 16.2162 81.8958 19.111V35.2732H73.3213Z" fill="#88889B"/>
<path d="M96.3475 35.2732H87.773V10.4268H96.3475V35.2732ZM87.5537 4.2426C87.5537 2.95605 87.9119 1.99845 88.6282 1.3698C89.3446 0.741145 90.4996 0.426819 92.0931 0.426819C93.6867 0.426819 94.849 0.748455 95.58 1.39173C96.311 2.035 96.6765 2.98529 96.6765 4.2426C96.6765 6.75721 95.1487 8.01452 92.0931 8.01452C89.0668 8.01452 87.5537 6.75721 87.5537 4.2426Z" fill="#88889B"/>
<path d="M113.65 35.7118C109.586 35.7118 106.501 34.6153 104.396 32.4223C102.305 30.2294 101.26 27.0788 101.26 22.9706C101.26 18.8478 102.393 15.6534 104.659 13.3873C106.925 11.1212 110.149 9.9882 114.33 9.9882C117.21 9.9882 119.922 10.6168 122.466 11.8742L119.944 18.2119C118.906 17.7586 117.948 17.4005 117.071 17.1373C116.194 16.8595 115.28 16.7206 114.33 16.7206C112.941 16.7206 111.866 17.2616 111.106 18.3434C110.346 19.4253 109.966 20.9531 109.966 22.9268C109.966 26.9034 111.435 28.8917 114.374 28.8917C116.888 28.8917 119.301 28.1607 121.611 26.6987V33.5188C119.403 34.9808 116.749 35.7118 113.65 35.7118Z" fill="#88889B"/>
<path d="M150.273 22.7952C150.273 26.8595 149.176 30.032 146.983 32.3127C144.805 34.5788 141.749 35.7118 137.817 35.7118C134.045 35.7118 131.04 34.5495 128.804 32.225C126.581 29.9004 125.47 26.7572 125.47 22.7952C125.47 18.7455 126.559 15.6022 128.738 13.3654C130.931 11.1139 134.001 9.9882 137.948 9.9882C140.39 9.9882 142.546 10.5072 144.418 11.5452C146.289 12.5832 147.729 14.0744 148.738 16.0189C149.761 17.9487 150.273 20.2075 150.273 22.7952ZM134.176 22.7952C134.176 24.9297 134.461 26.5598 135.032 27.6855C135.602 28.7966 136.559 29.3522 137.904 29.3522C139.235 29.3522 140.17 28.7966 140.711 27.6855C141.267 26.5598 141.545 24.9297 141.545 22.7952C141.545 20.6753 141.267 19.0744 140.711 17.9926C140.156 16.9107 139.206 16.3698 137.861 16.3698C136.545 16.3698 135.602 16.9107 135.032 17.9926C134.461 19.0598 134.176 20.6607 134.176 22.7952Z" fill="#88889B"/>
<path d="M163.803 35.2732H155.229V10.4268H163.803V35.2732ZM155.01 4.2426C155.01 2.95605 155.368 1.99845 156.084 1.3698C156.801 0.741145 157.956 0.426819 159.549 0.426819C161.143 0.426819 162.305 0.748455 163.036 1.39173C163.767 2.035 164.132 2.98529 164.132 4.2426C164.132 6.75721 162.605 8.01452 159.549 8.01452C156.523 8.01452 155.01 6.75721 155.01 4.2426Z" fill="#88889B"/>
<path d="M185.47 35.2732V21.7206C185.47 20.0686 185.229 18.8259 184.746 17.9926C184.279 17.1446 183.518 16.7206 182.466 16.7206C181.018 16.7206 179.973 17.2981 179.33 18.4531C178.686 19.6081 178.365 21.589 178.365 24.396V35.2732H169.79V10.4268H176.26L177.334 13.497H177.839C178.569 12.3274 179.578 11.4502 180.865 10.8654C182.166 10.2806 183.657 9.9882 185.338 9.9882C188.087 9.9882 190.222 10.785 191.742 12.3785C193.277 13.9721 194.045 16.2162 194.045 19.111V35.2732H185.47Z" fill="#88889B"/>
</svg>
