<svg width="219" height="33" viewBox="0 0 219 33" fill="none" xmlns="http://www.w3.org/2000/svg">
<path d="M25.3988 23.23L25.6682 32.392H17.7637L7.47881 14.4721H7.02969L6.98478 22.197L7.25425 32.392H0.652161L1.01146 23.8587L0.652161 3.4237H8.51179L18.8416 21.3437H19.2907L19.1111 3.69317L25.803 3.28897L25.3988 23.23Z" fill="#88889B"/>
<path d="M48.7369 23.0503L36.97 23.1401C37.1795 24.6971 37.7185 25.8498 38.5868 26.5984C39.4551 27.3469 40.6827 27.7212 42.2696 27.7212C43.8565 27.7212 45.9524 27.2571 48.5573 26.3289L49.0962 26.6882L48.0183 31.7633C45.623 32.5118 43.4523 32.8861 41.5061 32.8861C38.0628 32.8861 35.3531 31.913 33.377 29.9668C31.4308 28.0206 30.4577 25.3408 30.4577 21.9275C30.4577 18.5142 31.4008 15.8344 33.2872 13.8882C35.1735 11.9121 37.7335 10.924 40.9671 10.924C43.7517 10.924 45.9075 11.6726 47.4345 13.1696C48.9914 14.6667 49.7699 16.7476 49.7699 19.4124C49.7699 20.2807 49.6801 21.1939 49.5004 22.1521L48.7369 23.0503ZM43.617 18.6489C43.617 16.583 42.7187 15.55 40.9222 15.55C39.9042 15.55 39.0659 15.8943 38.4071 16.583C37.7484 17.2417 37.2993 18.1998 37.0598 19.4573L43.5271 19.2777L43.617 18.6489Z" fill="#88889B"/>
<path d="M61.0681 13.9781L63.3137 17.8854L65.6492 13.7086L66.8169 11.4181H72.9699L67.1313 21.7479L73.1495 32.1675L65.6492 32.7064L64.5713 29.8321L62.3257 25.79L59.8106 30.1464L58.7776 32.392H52.5797L58.4183 21.8826L52.5348 11.5528L60.125 11.2384L61.0681 13.9781Z" fill="#88889B"/>
<path d="M86.5179 27.1822C87.4161 27.1822 88.3743 26.9577 89.3923 26.5085L89.8863 27.0475L89.2126 31.1345C87.7155 31.9729 86.1586 32.4968 84.5417 32.7064C82.356 32.5867 80.6943 32.0178 79.5565 30.9998C78.4187 29.9518 77.8498 28.5296 77.8498 26.7331L78.0744 22.6461L78.0295 15.7745H75.2449L75.0204 15.4152L75.3348 11.5528H77.9846V7.95983L84.4968 6.02861L84.9909 6.47773L84.8112 11.5528H89.7516L89.9761 11.957L89.6617 15.7745H84.6765L84.407 24.8468C84.407 25.7151 84.5567 26.3289 84.8561 26.6882C85.1855 27.0176 85.7394 27.1822 86.5179 27.1822Z" fill="#88889B"/>
<path d="M106.502 3.37879C109.616 3.37879 112.011 4.15727 113.688 5.71422C115.395 7.27117 116.248 9.48684 116.248 12.3612C116.248 14.6068 115.739 16.583 114.721 18.2896C113.703 19.9663 112.266 21.2688 110.409 22.197C108.553 23.1252 106.397 23.5893 103.942 23.5893H101.337L101.607 32.392H94.2859L94.6901 23.8138L94.2859 3.4237L106.502 3.37879ZM105.244 18.3345C106.382 17.9453 107.221 17.3315 107.76 16.4931C108.328 15.6248 108.613 14.4871 108.613 13.0798C108.613 11.5827 108.239 10.4749 107.49 9.75632C106.772 9.03772 105.634 8.64848 104.077 8.5886L101.652 8.72334L101.427 18.1549L105.244 18.3345Z" fill="#88889B"/>
<path d="M127.4 23.0952L127.715 32.392H120.618L120.978 23.7689L120.708 1.35774L127.76 0.863708L127.4 23.0952Z" fill="#88889B"/>
<path d="M142.872 10.924C145.357 10.924 147.288 11.463 148.665 12.5409C150.043 13.5888 150.731 15.1009 150.731 17.077C150.731 17.7656 150.701 18.5591 150.642 19.4573C150.582 20.3556 150.537 21.2089 150.507 22.0173C150.357 24.1731 150.282 25.6552 150.282 26.4636C150.282 26.8828 150.342 27.1822 150.462 27.3619C150.612 27.5415 150.851 27.6314 151.181 27.6314C151.45 27.6314 151.779 27.5715 152.169 27.4517L152.663 27.8559L152.034 31.5836C151.046 32.2723 149.833 32.6765 148.396 32.7963C147.498 32.7064 146.734 32.392 146.105 31.8531C145.477 31.3141 145.028 30.5506 144.758 29.5626H144.444C142.947 31.1495 141.42 32.2423 139.863 32.8412C137.647 32.8112 135.895 32.2124 134.608 31.0447C133.35 29.877 132.722 28.2901 132.722 26.284C132.722 23.2 134.338 21.3886 137.572 20.8496L144.219 19.7268V18.4244C144.219 17.4962 144.01 16.8375 143.59 16.4482C143.201 16.029 142.557 15.8195 141.659 15.8195C140.761 15.8195 139.788 16.0141 138.74 16.4033C137.722 16.7926 136.539 17.4064 135.192 18.2447L134.743 17.9303L133.934 13.3044C135.282 12.5558 136.734 11.972 138.291 11.5528C139.848 11.1336 141.375 10.924 142.872 10.924ZM140.357 23.8138C139.908 23.9036 139.563 24.0833 139.324 24.3528C139.114 24.6222 139.009 25.0264 139.009 25.5654C139.009 26.284 139.189 26.8379 139.548 27.2271C139.938 27.6164 140.461 27.811 141.12 27.811C142.078 27.811 143.096 27.302 144.174 26.284L144.219 23.0503L140.357 23.8138Z" fill="#88889B"/>
<path d="M169.967 19.8616C170.027 17.7956 169.189 16.7626 167.452 16.7626C166.404 16.7626 165.267 17.2117 164.039 18.11V23.0952L164.353 32.392H157.257L157.572 23.8138L157.302 11.8223L164.084 11.2833V14.3823H164.353C165.97 12.8553 167.767 11.7624 169.743 11.1037C171.989 11.1037 173.695 11.6277 174.863 12.6756C176.061 13.6936 176.644 15.1607 176.614 17.077L176.435 23.0952L176.704 32.392H169.608L169.967 19.8616Z" fill="#88889B"/>
<path d="M199.572 23.0503L187.805 23.1401C188.014 24.6971 188.553 25.8498 189.421 26.5984C190.29 27.3469 191.517 27.7212 193.104 27.7212C194.691 27.7212 196.787 27.2571 199.392 26.3289L199.931 26.6882L198.853 31.7633C196.458 32.5118 194.287 32.8861 192.341 32.8861C188.897 32.8861 186.188 31.913 184.212 29.9668C182.265 28.0206 181.292 25.3408 181.292 21.9275C181.292 18.5142 182.236 15.8344 184.122 13.8882C186.008 11.9121 188.568 10.924 191.802 10.924C194.586 10.924 196.742 11.6726 198.269 13.1696C199.826 14.6667 200.605 16.7476 200.605 19.4124C200.605 20.2807 200.515 21.1939 200.335 22.1521L199.572 23.0503ZM194.452 18.6489C194.452 16.583 193.553 15.55 191.757 15.55C190.739 15.55 189.901 15.8943 189.242 16.583C188.583 17.2417 188.134 18.1998 187.894 19.4573L194.362 19.2777L194.452 18.6489Z" fill="#88889B"/>
<path d="M214.777 27.1822C215.675 27.1822 216.634 26.9577 217.652 26.5085L218.146 27.0475L217.472 31.1345C215.975 31.9729 214.418 32.4968 212.801 32.7064C210.615 32.5867 208.954 32.0178 207.816 30.9998C206.678 29.9518 206.109 28.5296 206.109 26.7331L206.334 22.6461L206.289 15.7745H203.504L203.28 15.4152L203.594 11.5528H206.244V7.95983L212.756 6.02861L213.25 6.47773L213.071 11.5528H218.011L218.235 11.957L217.921 15.7745H212.936L212.666 24.8468C212.666 25.7151 212.816 26.3289 213.115 26.6882C213.445 27.0176 213.999 27.1822 214.777 27.1822Z" fill="#88889B"/>
</svg>
