<svg width="42" height="42" viewBox="0 0 42 42" fill="none" xmlns="http://www.w3.org/2000/svg">
<path fill-rule="evenodd" clip-rule="evenodd" d="M20.5847 41.1756C31.9534 41.1756 41.1695 31.9595 41.1695 20.5908C41.1695 9.2222 31.9534 0.00610352 20.5847 0.00610352C9.2161 0.00610352 0 9.2222 0 20.5908C0 31.9595 9.2161 41.1756 20.5847 41.1756ZM26.7477 28.1843C27.8456 27.1779 28.3945 25.952 28.3945 24.5065C28.3945 23.3354 28.0926 22.4023 27.4888 21.7069C26.9033 20.9933 26.1805 20.4627 25.3205 20.1151C24.4605 19.7491 23.3627 19.4015 22.027 19.0721V12.6771C23.6554 12.7686 25.2107 13.2809 26.6928 14.2141L27.5986 12.0184C26.885 11.5244 26.0341 11.131 25.0461 10.8382C24.0763 10.5454 23.0699 10.3808 22.027 10.3442V7.24274H20.2704V10.3716C18.2394 10.5363 16.6932 11.1218 15.632 12.1282C14.589 13.1345 14.0675 14.3605 14.0675 15.806C14.0675 16.9587 14.3511 17.8919 14.9184 18.6055C15.5039 19.3191 16.2175 19.8589 17.0592 20.2248C17.9192 20.5908 18.9896 20.9293 20.2704 21.2404V27.6079C19.1725 27.5347 18.1204 27.306 17.1141 26.9217C16.1077 26.5192 15.2752 26.016 14.6165 25.4122L13.6009 27.553C14.3145 28.2117 15.266 28.7607 16.4554 29.1998C17.663 29.6206 18.9347 29.8677 20.2704 29.9408V33.0423H22.027V29.9408C24.0946 29.7762 25.6682 29.1906 26.7477 28.1843ZM17.663 17.5351C17.0592 17.096 16.7573 16.483 16.7573 15.6962C16.7573 14.9277 17.05 14.2781 17.6356 13.7475C18.2211 13.1986 19.0994 12.8509 20.2704 12.7046V18.633C19.136 18.3402 18.2668 17.9742 17.663 17.5351ZM24.7716 26.6473C24.1678 27.1596 23.2529 27.4707 22.027 27.5805V21.6795C23.2163 22.0089 24.122 22.3931 24.7442 22.8322C25.3846 23.2531 25.7048 23.8661 25.7048 24.6712C25.7048 25.4579 25.3937 26.1167 24.7716 26.6473Z" fill="#88889B"/>
</svg>
