<svg width="138" height="33" viewBox="0 0 138 33" fill="none" xmlns="http://www.w3.org/2000/svg">
<path d="M0.10083 5.93668H8.13512V31.7425H13.3312V5.93668H21.4092V1.17723H0.10083V5.93668Z" fill="#88889B"/>
<path d="M27.9643 16.4598C27.9643 14.8879 28.2117 13.447 28.7066 12.137C29.2306 10.798 29.9583 9.64817 30.8898 8.68755C31.8213 7.69781 32.913 6.94096 34.1647 6.41698C35.4455 5.8639 36.8573 5.58736 38.4001 5.58736C39.9138 5.58736 41.2966 5.8639 42.5483 6.41698C43.8291 6.94096 44.9353 7.69781 45.8668 8.68755C46.7983 9.64817 47.5115 10.798 48.0064 12.137C48.5012 13.447 48.7487 14.8879 48.7487 16.4598C48.7487 18.0318 48.4867 19.4873 47.9627 20.8263C47.4678 22.1362 46.7546 23.2861 45.8231 24.2758C44.8916 25.2364 43.7854 25.9933 42.5046 26.5464C41.2529 27.0703 39.8702 27.3323 38.3565 27.3323C36.8428 27.3323 35.4455 27.0703 34.1647 26.5464C32.913 25.9933 31.8213 25.2364 30.8898 24.2758C29.9583 23.2861 29.2306 22.1362 28.7066 20.8263C28.2117 19.4873 27.9643 18.0318 27.9643 16.4598ZM22.5062 16.4598C22.5062 18.7304 22.8992 20.8409 23.6852 22.7912C24.4711 24.7125 25.5773 26.4008 27.0037 27.8563C28.4301 29.2827 30.1039 30.4034 32.0251 31.2185C33.9464 32.0044 36.0568 32.3974 38.3565 32.3974C40.6561 32.3974 42.7666 32.0044 44.6878 31.2185C46.6382 30.4034 48.3266 29.2827 49.7529 27.8563C51.1793 26.4008 52.2855 24.7125 53.0714 22.7912C53.8574 20.8409 54.2504 18.7304 54.2504 16.4598C54.2504 14.1893 53.8574 12.0934 53.0714 10.1721C52.2855 8.22179 51.1648 6.54798 49.7093 5.15071C48.2829 3.72433 46.5945 2.61816 44.6442 1.8322C42.7229 1.04624 40.627 0.653259 38.3565 0.653259C36.0859 0.653259 33.99 1.04624 32.0688 1.8322C30.1475 2.61816 28.4592 3.72433 27.0037 5.15071C25.5773 6.54798 24.4711 8.22179 23.6852 10.1721C22.8992 12.0934 22.5062 14.1893 22.5062 16.4598Z" fill="#88889B"/>
<path d="M60.5712 1.17723V31.7425H65.7236V1.17723H60.5712ZM63.6277 5.71835H69.7844C70.9779 5.71835 72.0113 5.90757 72.8846 6.28599C73.7579 6.66442 74.442 7.2175 74.9368 7.94525C75.4317 8.67299 75.6791 9.58995 75.6791 10.6961C75.6791 11.7732 75.4317 12.6901 74.9368 13.447C74.442 14.1747 73.7579 14.7278 72.8846 15.1062C72.0113 15.4556 70.9779 15.6302 69.7844 15.6302H63.6277V20.1713H69.7844C72.0259 20.1713 73.9617 19.7929 75.5918 19.0361C77.2219 18.2501 78.4882 17.1585 79.3906 15.7612C80.293 14.3348 80.7442 12.6465 80.7442 10.6961C80.7442 8.74576 80.293 7.0574 79.3906 5.63102C78.4882 4.20465 77.2219 3.11303 75.5918 2.35618C73.9617 1.57021 72.0259 1.17723 69.7844 1.17723H63.6277V5.71835Z" fill="#88889B"/>
<path d="M86.9064 1.17723V21.6996C86.9064 23.388 87.1684 24.9017 87.6924 26.2407C88.2454 27.5798 89.0168 28.715 90.0066 29.6466C90.9963 30.5781 92.1753 31.2913 93.5434 31.7861C94.9116 32.281 96.4107 32.5284 98.0409 32.5284C99.671 32.5284 101.17 32.281 102.538 31.7861C103.906 31.2913 105.085 30.5781 106.075 29.6466C107.065 28.715 107.822 27.5798 108.346 26.2407C108.899 24.9017 109.175 23.388 109.175 21.6996V1.17723H104.023V21.4813C104.023 22.733 103.79 23.8392 103.324 24.7998C102.888 25.7313 102.218 26.459 101.316 26.983C100.442 27.507 99.3508 27.769 98.0409 27.769C96.7309 27.769 95.6248 27.507 94.7224 26.983C93.8491 26.459 93.1795 25.7313 92.7138 24.7998C92.2771 23.8392 92.0588 22.733 92.0588 21.4813V1.17723H86.9064Z" fill="#88889B"/>
<path d="M117.09 1.17723V31.7425H122.242V1.17723H117.09ZM120.146 5.71835H126.303C127.496 5.71835 128.53 5.90757 129.403 6.28599C130.276 6.66442 130.96 7.2175 131.455 7.94525C131.95 8.67299 132.197 9.58995 132.197 10.6961C132.197 11.7732 131.95 12.6901 131.455 13.447C130.96 14.1747 130.276 14.7278 129.403 15.1062C128.53 15.4556 127.496 15.6302 126.303 15.6302H120.146V20.1713H126.303C128.544 20.1713 130.48 19.7929 132.11 19.0361C133.74 18.2501 135.007 17.1585 135.909 15.7612C136.811 14.3348 137.263 12.6465 137.263 10.6961C137.263 8.74576 136.811 7.0574 135.909 5.63102C135.007 4.20465 133.74 3.11303 132.11 2.35618C130.48 1.57021 128.544 1.17723 126.303 1.17723H120.146V5.71835Z" fill="#88889B"/>
</svg>
